<mxfile compressed="false" host="Electron" modified="2023-05-28T17:39:50.139Z" agent="5.0 (X11; Linux x86_64) AppleWebKit/537.36 (KHTML, like Gecko) draw.io/20.7.4 Chrome/106.0.5249.199 Electron/21.3.3 Safari/537.36" version="20.7.4" etag="tsf4LSAfGe4iXbC9IuFo" type="device">
  <diagram id="Page-1" name="Page-1">
    <mxGraphModel dx="1434" dy="822" grid="1" gridSize="10" guides="1" tooltips="1" connect="1" arrows="1" fold="1" page="1" pageScale="1" pageWidth="827" pageHeight="1169" math="0" shadow="1">
      <root>
        <mxCell id="0" />
        <mxCell id="1" parent="0" />
        <object label="1a1 pick up sv tool" id="1a1 pick up sv tool">
          <mxCell style="rounded=1;whiteSpace=wrap;html=1;" parent="1" vertex="1">
            <mxGeometry x="110" y="427" width="120" height="60" as="geometry" />
          </mxCell>
        </object>
        <object label="1a2 pick up RSO2Cl sv vial" id="1a2 pick up RSO2Cl sv vial">
          <mxCell style="rounded=1;whiteSpace=wrap;html=1;" parent="1" vertex="1">
            <mxGeometry x="110" y="590" width="120" height="60" as="geometry" />
          </mxCell>
        </object>
        <object label="1a3 dispense RSO2Cl to vial-0 RACK B" id="1a3 dispense RSO2Cl to vial-0 RACK B">
          <mxCell style="rounded=1;whiteSpace=wrap;html=1;" parent="1" vertex="1">
            <mxGeometry x="110" y="750" width="120" height="60" as="geometry" />
          </mxCell>
        </object>
        <object label="1b1 put down RSO2Cl sv vial" id="1b1 put down RSO2Cl sv vial">
          <mxCell style="rounded=1;whiteSpace=wrap;html=1;" parent="1" vertex="1">
            <mxGeometry x="300" y="427" width="120" height="60" as="geometry" />
          </mxCell>
        </object>
        <object label="1b2 pick up solid amine sv vial" id="1b2 pick up solid amine sv vial">
          <mxCell style="rounded=1;whiteSpace=wrap;html=1;" parent="1" vertex="1">
            <mxGeometry x="300" y="590" width="120" height="60" as="geometry" />
          </mxCell>
        </object>
        <object label="1b3 dispense solid amine to vial-0 RACK C" id="1b3 dispense solid amine to vial-0 RACK C">
          <mxCell style="rounded=1;whiteSpace=wrap;html=1;" parent="1" vertex="1">
            <mxGeometry x="300" y="750" width="120" height="60" as="geometry" />
          </mxCell>
        </object>
        <object label="2a put down sv vial this also free this slot for ARM Z1: Z1 ARM" id="2a put down sv vial this also free this slot for ARM Z1: Z1 ARM">
          <mxCell style="rounded=1;whiteSpace=wrap;html=1;fillColor=#f8cecc;strokeColor=#b85450;" parent="1" vertex="1">
            <mxGeometry x="490" y="750" width="120" height="60" as="geometry" />
          </mxCell>
        </object>
        <object label="3 dispense DCM to mrv vial (has aniline)" id="3 dispense DCM to mrv vial (has aniline)">
          <mxCell style="rounded=1;whiteSpace=wrap;html=1;" parent="1" vertex="1">
            <mxGeometry x="490" y="880" width="120" height="60" as="geometry" />
          </mxCell>
        </object>
        <object label="4a put down sv tool" id="4a put down sv tool">
          <mxCell style="rounded=1;whiteSpace=wrap;html=1;" parent="1" vertex="1">
            <mxGeometry x="670" y="590" width="120" height="60" as="geometry" />
          </mxCell>
        </object>
        <object label="4b pick up pdt 1 for pyridine" id="4b pick up pdt 1 for pyridine">
          <mxCell style="rounded=1;whiteSpace=wrap;html=1;" parent="1" vertex="1">
            <mxGeometry x="670" y="750" width="120" height="60" as="geometry" />
          </mxCell>
        </object>
        <object label="4c_dep move z1 to off deck so z2 has access" id="4c_dep move z1 to off deck so z2 has access">
          <mxCell style="rounded=1;whiteSpace=wrap;html=1;fillColor=#f8cecc;strokeColor=#b85450;" parent="1" vertex="1">
            <mxGeometry x="670" y="880" width="120" height="60" as="geometry" />
          </mxCell>
        </object>
        <object label="4c use pdt to transfer pyridine" id="4c use pdt to transfer pyridine">
          <mxCell style="rounded=1;whiteSpace=wrap;html=1;" parent="1" vertex="1">
            <mxGeometry x="850" y="880" width="120" height="60" as="geometry" />
          </mxCell>
        </object>
        <object label="6 use pdt to transfer rso2cl stock solution" id="6 use pdt to transfer rso2cl stock solution">
          <mxCell style="rounded=1;whiteSpace=wrap;html=1;" parent="1" vertex="1">
            <mxGeometry x="850" y="750" width="120" height="60" as="geometry" />
          </mxCell>
        </object>
        <object label="7 wait until reaction finishes" id="7 wait until reaction finishes">
          <mxCell style="rounded=1;whiteSpace=wrap;html=1;" parent="1" vertex="1">
            <mxGeometry x="850" y="590" width="120" height="60" as="geometry" />
          </mxCell>
        </object>
        <object label="" source="1a1&#xa;pick up sv tool" target="1a2&#xa;pick up RSO2Cl sv vial" id="26fe87c7562d9c1cfbdafe2aebd6f3b2">
          <mxCell style="endArrow=classic" parent="1" source="1a1 pick up sv tool" target="1a2 pick up RSO2Cl sv vial" edge="1">
            <mxGeometry relative="1" as="geometry" />
          </mxCell>
        </object>
        <object label="" source="1a2&#xa;pick up RSO2Cl sv vial" target="1a3&#xa;dispense RSO2Cl to vial-0 RACK B" id="a193ee18bb2b6d454fa22825e57fa8b5">
          <mxCell style="endArrow=classic" parent="1" source="1a2 pick up RSO2Cl sv vial" target="1a3 dispense RSO2Cl to vial-0 RACK B" edge="1">
            <mxGeometry relative="1" as="geometry" />
          </mxCell>
        </object>
        <object label="" source="1a3&#xa;dispense RSO2Cl to vial-0 RACK B" target="1b1&#xa;put down RSO2Cl sv vial" id="345469fc148ad3b521233a05955e6f97">
          <mxCell style="endArrow=classic" parent="1" source="1a3 dispense RSO2Cl to vial-0 RACK B" target="1b1 put down RSO2Cl sv vial" edge="1">
            <mxGeometry relative="1" as="geometry" />
          </mxCell>
        </object>
        <object label="" source="1a1&#xa;pick up sv tool" target="1b1&#xa;put down RSO2Cl sv vial" id="c2a973c0a3d65b0289277aaf06851cd4">
          <mxCell style="endArrow=classic" parent="1" source="1a1 pick up sv tool" target="1b1 put down RSO2Cl sv vial" edge="1">
            <mxGeometry relative="1" as="geometry" />
          </mxCell>
        </object>
        <object label="" source="1b1&#xa;put down RSO2Cl sv vial" target="1b2&#xa;pick up solid amine sv vial" id="3644e132f22287a66bdd117a366f3def">
          <mxCell style="endArrow=classic" parent="1" source="1b1 put down RSO2Cl sv vial" target="1b2 pick up solid amine sv vial" edge="1">
            <mxGeometry relative="1" as="geometry" />
          </mxCell>
        </object>
        <object label="" source="1b2&#xa;pick up solid amine sv vial" target="1b3&#xa;dispense solid amine to vial-0 RACK C" id="e66f12420bb2502926b9ac681509bd5b">
          <mxCell style="endArrow=classic" parent="1" source="1b2 pick up solid amine sv vial" target="1b3 dispense solid amine to vial-0 RACK C" edge="1">
            <mxGeometry relative="1" as="geometry" />
          </mxCell>
        </object>
        <object label="" source="1b3&#xa;dispense solid amine to vial-0 RACK C" target="2a&#xa;put down sv vial this also free this slot for ARM Z1: Z1 ARM" id="a59fe55140285723bec4d7844c1ca215">
          <mxCell style="endArrow=classic" parent="1" source="1b3 dispense solid amine to vial-0 RACK C" target="2a put down sv vial this also free this slot for ARM Z1: Z1 ARM" edge="1">
            <mxGeometry relative="1" as="geometry" />
          </mxCell>
        </object>
        <object label="" source="1a3&#xa;dispense RSO2Cl to vial-0 RACK B" target="2b&#xa;dispense DCM to RSO2Cl vial to make stock solution" id="ff99c5d5c3aef5388c8f65090d327cbf">
          <mxCell style="endArrow=classic" parent="1" source="1a3 dispense RSO2Cl to vial-0 RACK B" target="2b dispense DCM to RSO2Cl vial to make stock solution" edge="1">
            <mxGeometry relative="1" as="geometry" />
          </mxCell>
        </object>
        <object label="" source="1b3&#xa;dispense solid amine to vial-0 RACK C" target="2b&#xa;dispense DCM to RSO2Cl vial to make stock solution" id="5a24c34b853f50a08393e555ae4ea6ca">
          <mxCell style="endArrow=classic" parent="1" source="1b3 dispense solid amine to vial-0 RACK C" target="2b dispense DCM to RSO2Cl vial to make stock solution" edge="1">
            <mxGeometry relative="1" as="geometry" />
          </mxCell>
        </object>
        <object label="" source="2a&#xa;put down sv vial this also free this slot for ARM Z1: Z1 ARM" target="2b&#xa;dispense DCM to RSO2Cl vial to make stock solution" id="060ec7aed716552514f86f4b1e995c99">
          <mxCell style="endArrow=classic" parent="1" source="2a put down sv vial this also free this slot for ARM Z1: Z1 ARM" target="2b dispense DCM to RSO2Cl vial to make stock solution" edge="1">
            <mxGeometry relative="1" as="geometry" />
          </mxCell>
        </object>
        <object label="" source="1a3&#xa;dispense RSO2Cl to vial-0 RACK B" target="3&#xa;dispense DCM to mrv vial (has aniline)" id="2b4ce801865e26c64d1cefe4df9ddc98">
          <mxCell style="endArrow=classic" parent="1" source="1a3 dispense RSO2Cl to vial-0 RACK B" target="3 dispense DCM to mrv vial (has aniline)" edge="1">
            <mxGeometry relative="1" as="geometry" />
          </mxCell>
        </object>
        <object label="" source="1b3&#xa;dispense solid amine to vial-0 RACK C" target="3&#xa;dispense DCM to mrv vial (has aniline)" id="317f8626b55b20ac527579d938b8b140">
          <mxCell style="endArrow=classic" parent="1" source="1b3 dispense solid amine to vial-0 RACK C" target="3 dispense DCM to mrv vial (has aniline)" edge="1">
            <mxGeometry relative="1" as="geometry" />
          </mxCell>
        </object>
        <object label="" source="2a&#xa;put down sv vial this also free this slot for ARM Z1: Z1 ARM" target="4a&#xa;put down sv tool" id="c92e200287c2038cb5c500bb149210ad">
          <mxCell style="endArrow=classic;startArrow=none;" parent="1" source="2b dispense DCM to RSO2Cl vial to make stock solution" target="4a put down sv tool" edge="1">
            <mxGeometry relative="1" as="geometry" />
          </mxCell>
        </object>
        <object label="" source="4a&#xa;put down sv tool" target="4b&#xa;pick up pdt 1 for pyridine" id="c7ca733588eec95a01fdf03d4b0015f0">
          <mxCell style="endArrow=classic" parent="1" source="4a put down sv tool" target="4b pick up pdt 1 for pyridine" edge="1">
            <mxGeometry relative="1" as="geometry" />
          </mxCell>
        </object>
        <object label="" source="3&#xa;dispense DCM to mrv vial (has aniline)" target="4c_dep&#xa;move z1 to off deck so z2 has access" id="836449c87b66e16912316ba58bdc9cbe">
          <mxCell style="endArrow=classic" parent="1" source="3 dispense DCM to mrv vial (has aniline)" target="4c_dep move z1 to off deck so z2 has access" edge="1">
            <mxGeometry relative="1" as="geometry" />
          </mxCell>
        </object>
        <object label="" source="4b&#xa;pick up pdt 1 for pyridine" target="4c&#xa;use pdt to transfer pyridine" id="4c67723fc7845976f76f0f1c2acff9a3">
          <mxCell style="endArrow=classic" parent="1" source="4b pick up pdt 1 for pyridine" target="4c use pdt to transfer pyridine" edge="1">
            <mxGeometry relative="1" as="geometry" />
          </mxCell>
        </object>
        <object label="" source="4c_dep&#xa;move z1 to off deck so z2 has access" target="4c&#xa;use pdt to transfer pyridine" id="83241c8558850901d2750c09a3a74aba">
          <mxCell style="endArrow=classic" parent="1" source="4c_dep move z1 to off deck so z2 has access" target="4c use pdt to transfer pyridine" edge="1">
            <mxGeometry relative="1" as="geometry" />
          </mxCell>
        </object>
        <object label="" source="4c&#xa;use pdt to transfer pyridine" target="6&#xa;use pdt to transfer rso2cl stock solution" id="b366693fa05e5aee9ec67e140fa293b8">
          <mxCell style="endArrow=classic" parent="1" source="4c use pdt to transfer pyridine" target="6 use pdt to transfer rso2cl stock solution" edge="1">
            <mxGeometry relative="1" as="geometry" />
          </mxCell>
        </object>
        <object label="" source="2b&#xa;dispense DCM to RSO2Cl vial to make stock solution" target="6&#xa;use pdt to transfer rso2cl stock solution" id="80bf3947ff137faff21433818accb103">
          <mxCell style="endArrow=classic" parent="1" source="2b dispense DCM to RSO2Cl vial to make stock solution" target="6 use pdt to transfer rso2cl stock solution" edge="1">
            <mxGeometry relative="1" as="geometry" />
          </mxCell>
        </object>
        <object label="" source="6&#xa;use pdt to transfer rso2cl stock solution" target="7&#xa;wait until reaction finishes" id="5a338f599e018b780d6b37c65e34b62d">
          <mxCell style="endArrow=classic" parent="1" source="6 use pdt to transfer rso2cl stock solution" target="7 wait until reaction finishes" edge="1">
            <mxGeometry relative="1" as="geometry" />
          </mxCell>
        </object>
        <object label="2b dispense DCM to RSO2Cl vial to make stock solution" id="2b dispense DCM to RSO2Cl vial to make stock solution">
          <mxCell style="rounded=1;whiteSpace=wrap;html=1;" parent="1" vertex="1">
            <mxGeometry x="490" y="590" width="120" height="60" as="geometry" />
          </mxCell>
        </object>
        <mxCell id="pSJrl-ZbDKFLFzuxOReB-1" value="" style="endArrow=none;" edge="1" parent="1" source="2a put down sv vial this also free this slot for ARM Z1: Z1 ARM" target="2b dispense DCM to RSO2Cl vial to make stock solution">
          <mxGeometry relative="1" as="geometry">
            <mxPoint x="551.9582245430809" y="750" as="sourcePoint" />
            <mxPoint x="573.0417754569191" y="427" as="targetPoint" />
          </mxGeometry>
        </mxCell>
      </root>
    </mxGraphModel>
  </diagram>
</mxfile>
